<?xml version="1.0" encoding="utf-8"?>
<!DOCTYPE svg PUBLIC "-//W3C//DTD SVG 1.0//EN" "http://www.w3.org/TR/2001/REC-SVG-20010904/DTD/svg10.dtd">
<svg version="1.0" xmlns="http://www.w3.org/2000/svg" width="626px" height="550px" viewBox="0 0 626 550" preserveAspectRatio="xMidYMid meet">
 <g fill="#000000">
  <path d="M407.75 510 c-1.65 -0.25 -4.35 -0.75 -6 -1.20 -1.65 -0.40 -5.70 -0.90 -9 -1.10 -4.70 -0.25 -6.50 -0.55 -8.25 -1.45 -1.25 -0.60 -3.80 -1.25 -5.75 -1.45 -1.95 -0.20 -4.70 -0.90 -6.20 -1.55 -1.45 -0.70 -3.30 -1.25 -4.10 -1.25 -1.80 0 -4 -0.85 -5.05 -1.95 -0.45 -0.50 -1.85 -1.10 -3.10 -1.25 -1.25 -0.20 -2.90 -0.90 -3.65 -1.50 -0.80 -0.65 -2.35 -1.35 -3.55 -1.55 -1.25 -0.20 -2.30 -0.70 -2.60 -1.25 -0.25 -0.45 -1.20 -1.15 -2.10 -1.50 -2.65 -1.05 -6.90 -4 -6.90 -4.75 0 -0.40 -0.55 -0.85 -1.25 -1.05 -0.70 -0.15 -1.65 -0.80 -2.15 -1.40 -0.45 -0.60 -1.70 -1.60 -2.70 -2.20 -1 -0.65 -2 -1.60 -2.15 -2.10 -0.15 -0.55 -1.60 -2.30 -3.15 -3.85 -1.60 -1.60 -3.25 -3.50 -3.75 -4.25 -0.50 -0.80 -1.10 -1.40 -1.35 -1.40 -0.25 0 -1.75 -1.25 -3.35 -2.75 -1.85 -1.75 -3.50 -2.85 -4.55 -3.05 -0.85 -0.15 -2.40 -0.95 -3.40 -1.75 -1.05 -0.80 -2.45 -1.45 -3.20 -1.45 -0.75 0 -2.95 -0.60 -4.80 -1.35 l-3.45 -1.40 -100 -0.25 -100 -0.25 -3.10 -1.35 c-1.70 -0.80 -3.95 -1.40 -4.90 -1.40 -1.15 0 -2.40 -0.45 -3.45 -1.25 -0.90 -0.70 -2.70 -1.45 -4 -1.70 -1.25 -0.25 -3.15 -1 -4.20 -1.75 -1.05 -0.70 -2.10 -1.30 -2.30 -1.30 -0.20 0 -1.05 -0.65 -1.80 -1.50 -0.95 -1 -1.90 -1.50 -2.85 -1.50 -1.10 0 -1.65 -0.35 -2.05 -1.25 -0.30 -0.70 -0.95 -1.25 -1.35 -1.25 -0.95 0 -13.75 -12.90 -13.75 -13.80 0 -0.40 -0.55 -1.05 -1.25 -1.50 -0.70 -0.45 -1.35 -1.50 -1.55 -2.45 -0.15 -0.90 -0.95 -2.30 -1.75 -3.05 -0.80 -0.75 -1.45 -1.70 -1.45 -2.10 0 -0.35 -0.55 -1.40 -1.20 -2.25 -0.70 -0.90 -1.45 -2.55 -1.70 -3.70 -0.25 -1.15 -0.90 -2.70 -1.45 -3.50 -0.60 -0.80 -1.15 -2.65 -1.30 -4.40 -0.20 -1.65 -0.85 -4.50 -1.50 -6.25 -1.15 -3.05 -1.25 -4.10 -1.50 -17.50 -0.15 -7.85 -0.10 -14.55 0.10 -14.90 0.25 -0.40 1.10 -0.60 2.10 -0.50 1.45 0.15 1.75 0.40 2.25 2.15 0.30 1.10 1.05 2.80 1.65 3.75 0.55 0.95 1.05 2.05 1.05 2.45 0 0.75 2.25 4.30 5.45 8.55 2.20 2.95 7.65 8.15 9.95 9.50 1 0.60 2.10 1.55 2.50 2.05 0.35 0.50 1.10 0.95 1.60 0.95 0.50 0 1.35 0.55 1.90 1.25 0.55 0.70 1.85 1.40 3 1.70 1.15 0.25 2.75 1.05 3.60 1.75 0.90 0.70 2.10 1.30 2.70 1.30 0.65 0 2 0.70 3.05 1.50 1.55 1.25 2.35 1.50 4.50 1.50 1.85 0 3.45 0.40 5.55 1.45 2.70 1.30 3.60 1.45 10.95 1.85 10.50 0.60 188.80 0.60 196.25 0 5.05 -0.35 5.90 -0.55 7.05 -1.65 0.70 -0.65 2.15 -1.30 3.25 -1.50 1.05 -0.15 2.50 -0.80 3.20 -1.45 0.70 -0.60 1.90 -1.30 2.75 -1.50 1.50 -0.35 10.55 -8.95 11.70 -11.05 0.30 -0.65 1 -1.15 1.55 -1.15 0.60 0 1 -0.40 1.10 -1.10 0.10 -0.60 0.70 -1.40 1.35 -1.75 0.70 -0.30 1.55 -1.15 1.90 -1.85 0.40 -0.70 1 -1.30 1.35 -1.30 0.35 0 1.35 -0.65 2.20 -1.50 0.90 -0.85 1.95 -1.50 2.35 -1.50 0.40 0 1.35 -0.65 2.10 -1.50 0.70 -0.80 1.70 -1.50 2.20 -1.50 0.50 0 1.15 -0.45 1.45 -1 0.30 -0.55 1.70 -1.35 3.25 -1.80 1.50 -0.50 2.75 -1.15 2.75 -1.50 0 -0.70 2.55 -1.70 4.35 -1.70 0.65 0 1.70 -0.55 2.30 -1.25 0.85 -0.95 1.85 -1.35 4.15 -1.65 2 -0.25 3.35 -0.75 4.05 -1.45 0.75 -0.75 2 -1.15 4.65 -1.40 2.20 -0.20 4.55 -0.85 5.95 -1.55 1.60 -0.80 3.80 -1.30 7.05 -1.65 2.60 -0.25 6.45 -0.95 8.50 -1.55 5.30 -1.45 30.80 -2.20 51.65 -1.50 15.05 0.55 18.75 0.90 21.20 2.15 0.80 0.40 3.20 0.85 5.40 1.05 4.60 0.35 7.25 1 7.80 1.90 0.25 0.40 2.45 0.90 5.20 1.20 3.50 0.40 5.20 0.85 6.25 1.65 0.80 0.55 1.95 1.05 2.50 1.05 2.10 0 5.55 1.15 6 2 0.30 0.55 1.35 0.95 3 1.15 1.70 0.20 3.05 0.75 4.05 1.60 0.95 0.75 2.15 1.25 3.15 1.25 1.15 0 2.05 0.45 3.05 1.50 0.80 0.85 1.95 1.50 2.65 1.50 1.40 0 3 0.80 4.25 2.05 0.50 0.55 1.40 0.95 2.05 0.95 0.65 0 1.70 0.65 2.45 1.50 0.75 0.85 1.80 1.50 2.35 1.50 0.55 0 1.70 0.70 2.60 1.50 0.85 0.85 1.80 1.50 2.15 1.50 0.30 0 1.20 0.65 1.95 1.45 0.80 0.80 2 1.60 2.75 1.80 0.70 0.15 1.90 0.90 2.65 1.65 0.75 0.75 1.75 1.75 2.25 2.20 1.45 1.40 2.15 2.10 3.05 3.10 0.45 0.55 1.45 1.55 2.25 2.25 0.75 0.70 1.35 1.70 1.35 2.20 0 0.50 0.80 1.65 1.75 2.50 0.95 0.85 1.75 1.95 1.75 2.50 0 0.50 0.45 1.05 1 1.20 0.55 0.15 1.15 0.85 1.30 1.60 0.60 2.75 0.90 3.35 2 4.40 0.65 0.60 1.20 1.60 1.20 2.25 0 0.65 0.60 2.30 1.40 3.65 l1.35 2.50 0 11 c0 10.45 -0.05 11.05 -1.10 12.50 -0.55 0.85 -1.20 2.60 -1.40 3.90 -0.20 1.40 -0.90 3.05 -1.55 3.85 -0.65 0.75 -1.20 1.75 -1.20 2.20 0 0.40 -0.65 1.50 -1.45 2.40 -0.75 0.90 -1.60 2.15 -1.75 2.80 -0.20 0.60 -0.90 1.45 -1.55 1.90 -0.65 0.40 -1.30 1.30 -1.45 1.95 -0.15 0.65 -0.75 1.35 -1.30 1.50 -0.55 0.15 -1 0.50 -1 0.75 0 0.70 -4.25 5 -4.90 5 -0.30 0 -1 0.70 -1.60 1.50 -0.60 0.85 -1.40 1.50 -1.80 1.50 -0.40 0 -0.95 0.55 -1.20 1.30 -0.30 0.70 -1.15 1.45 -2 1.75 -0.80 0.30 -1.50 0.75 -1.50 1.05 0 0.25 -1 0.90 -2.25 1.45 -1.25 0.55 -2.80 1.55 -3.50 2.20 -0.65 0.70 -1.70 1.25 -2.35 1.25 -0.65 0 -1.65 0.55 -2.30 1.25 -0.65 0.65 -1.90 1.40 -2.75 1.65 -0.90 0.25 -2.50 1.05 -3.55 1.80 -1.05 0.70 -2.30 1.30 -2.75 1.30 -0.50 0 -1.60 0.55 -2.55 1.25 -0.95 0.70 -2.75 1.40 -4.10 1.55 -1.55 0.20 -2.70 0.70 -3.10 1.30 -0.70 1 -3.25 1.90 -5.40 1.90 -0.70 0 -1.65 0.30 -2 0.65 -1.25 1.30 -2.75 1.80 -6.20 2.15 -2.15 0.25 -3.95 0.70 -4.75 1.30 -0.80 0.60 -3.05 1.25 -5.50 1.65 -2.30 0.35 -5 1.05 -5.95 1.55 -1.15 0.60 -3.60 1 -7.50 1.30 -3.15 0.25 -7.55 0.90 -9.75 1.50 -3.75 1 -5.35 1.05 -25.25 1.20 -11.70 0.05 -22.60 -0.05 -24.25 -0.30z"/>
  <path d="M102.75 403 c-2.20 -0.15 -4.55 -0.60 -5.20 -0.95 -0.65 -0.35 -3 -0.95 -5.20 -1.35 -2.20 -0.40 -4.70 -1.10 -5.55 -1.65 -0.85 -0.50 -2.70 -1.30 -4.15 -1.75 -1.40 -0.45 -2.70 -1.15 -2.80 -1.55 -0.15 -0.35 -0.95 -0.80 -1.75 -1 -0.85 -0.15 -1.90 -0.75 -2.40 -1.35 -0.55 -0.55 -1.60 -1.35 -2.45 -1.75 -1.85 -0.90 -2.40 -1.45 -7.50 -6.60 -4.60 -4.70 -6.75 -7.20 -6.75 -7.95 0 -0.30 -0.80 -1.45 -1.75 -2.60 -0.95 -1.15 -1.75 -2.40 -1.75 -2.75 0 -0.35 -0.55 -1.30 -1.20 -2.10 -0.65 -0.75 -1.35 -2.20 -1.55 -3.15 -0.20 -0.95 -0.90 -2.45 -1.50 -3.30 -0.65 -0.85 -1.30 -2.65 -1.50 -4 -0.20 -1.35 -0.85 -3.35 -1.50 -4.45 -0.70 -1.30 -1.25 -3.30 -1.45 -5.75 -0.20 -2 -0.85 -4.85 -1.45 -6.25 -1.10 -2.50 -1.10 -2.65 -1.25 -51.50 l-0.15 -49 1.30 -1.05 c0.85 -0.65 1.40 -1.70 1.60 -3 0.15 -1.05 0.70 -2.30 1.25 -2.70 0.50 -0.45 1.25 -1.35 1.55 -2 0.35 -0.65 1.25 -1.35 2.05 -1.55 0.75 -0.20 1.75 -0.85 2.10 -1.40 0.40 -0.55 1.45 -1.15 2.35 -1.30 0.85 -0.20 2.10 -0.85 2.75 -1.45 1.05 -0.95 1.85 -1.05 8.25 -1.20 6.95 -0.20 7.15 -0.15 9 1.10 1.05 0.70 2.35 1.30 2.95 1.30 0.55 0 1.80 0.60 2.75 1.40 6.10 4.90 8.15 7.45 8.15 10.25 0 0.65 0.50 1.85 1.15 2.65 l1.10 1.40 0.25 64.85 0.25 64.85 1.10 0.90 c0.55 0.55 1.40 2.10 1.90 3.55 0.45 1.40 1.15 2.85 1.55 3.20 0.40 0.35 1.05 1.35 1.45 2.25 0.35 0.90 1.15 1.90 1.75 2.20 0.55 0.30 1.25 1.10 1.50 1.80 0.25 0.65 1 1.40 1.65 1.65 0.70 0.25 1.35 0.95 1.50 1.50 0.15 0.55 0.85 1.25 1.60 1.55 0.75 0.30 1.45 0.95 1.60 1.50 0.20 0.65 0.85 1.10 2.10 1.30 1 0.15 2.60 0.85 3.55 1.45 0.95 0.65 2.45 1.35 3.25 1.50 3.20 0.70 3.25 0.75 3.25 2.50 0 1.05 -0.30 1.75 -0.80 1.95 -0.95 0.35 -11.50 0.25 -16.95 -0.20z"/>
  <path d="M285.45 361.50 c-2.25 -0.20 -4.55 -0.80 -5.75 -1.40 -1.05 -0.60 -3.25 -1.20 -4.85 -1.40 -2 -0.20 -3.25 -0.60 -3.95 -1.30 -0.55 -0.55 -2.15 -1.30 -3.50 -1.70 -1.40 -0.35 -3 -1.05 -3.60 -1.60 -0.55 -0.55 -1.75 -1.10 -2.55 -1.25 -1.45 -0.25 -7.40 -3.90 -8.05 -4.90 -0.15 -0.25 -1 -0.80 -1.85 -1.15 -0.90 -0.40 -2.25 -1.25 -3.05 -1.85 -2.50 -2.10 -8.80 -8.50 -8.80 -9 0 -0.25 -0.30 -0.45 -0.65 -0.45 -0.35 0 -1.55 -1.05 -2.65 -2.35 -1.05 -1.25 -2.55 -3 -3.30 -3.80 -0.80 -0.80 -1.40 -1.75 -1.40 -2.10 0 -0.35 -0.80 -1.60 -1.75 -2.80 -0.95 -1.20 -1.75 -2.45 -1.75 -2.75 0 -0.30 -0.55 -1 -1.25 -1.60 -0.70 -0.60 -1.25 -1.50 -1.25 -2 0 -0.45 -0.60 -1.75 -1.30 -2.80 -0.75 -1.10 -1.55 -2.85 -1.80 -3.95 -0.25 -1.10 -0.90 -2.65 -1.45 -3.45 -0.65 -0.85 -1.20 -2.75 -1.45 -4.65 -0.25 -2 -0.80 -3.80 -1.50 -4.80 -1.35 -1.90 -1.95 -8.15 -1.95 -21.70 0 -13.80 0.60 -20.50 2.15 -23.75 0.80 -1.75 1.30 -3.60 1.30 -5.10 0 -1.75 0.30 -2.70 1.30 -3.85 0.70 -0.85 1.40 -2.35 1.55 -3.40 0.15 -1.05 0.80 -2.60 1.40 -3.40 0.60 -0.85 1.30 -2.25 1.50 -3.15 0.20 -0.90 0.85 -2 1.55 -2.40 0.70 -0.45 1.30 -1.50 1.50 -2.50 0.15 -0.95 0.80 -2.10 1.40 -2.60 0.55 -0.45 1.35 -1.45 1.65 -2.20 0.35 -0.80 0.85 -1.40 1.15 -1.40 0.25 0 0.85 -0.75 1.30 -1.60 0.70 -1.35 3 -4.40 4.60 -6 2.80 -2.85 11.80 -10.40 12.40 -10.40 0.45 0 1.25 -0.55 1.80 -1.25 0.55 -0.70 1.25 -1.25 1.60 -1.25 0.35 0 1.50 -0.65 2.55 -1.50 1 -0.80 2.30 -1.60 2.90 -1.80 0.60 -0.20 1.65 -0.75 2.30 -1.25 0.65 -0.55 2.10 -1.20 3.25 -1.50 1.10 -0.25 2.70 -0.95 3.45 -1.50 0.75 -0.55 2.80 -1.25 4.50 -1.55 1.70 -0.30 3.80 -0.95 4.65 -1.45 1.05 -0.65 3.30 -1.15 6.50 -1.45 2.75 -0.30 6.75 -0.85 8.95 -1.25 5.15 -0.95 11.45 -0.95 17.70 0 2.70 0.40 7.15 0.95 9.85 1.25 3.25 0.40 5.55 0.90 6.65 1.55 0.95 0.55 2.85 1.15 4.20 1.30 1.35 0.15 3.20 0.80 4.15 1.45 0.90 0.65 2.55 1.40 3.60 1.70 1.10 0.25 2.50 0.90 3.15 1.40 0.65 0.50 1.95 1.20 2.85 1.60 0.90 0.35 1.85 1.05 2.10 1.55 0.30 0.45 1.20 1 2 1.20 0.85 0.20 1.90 0.90 2.30 1.55 0.45 0.65 1.15 1.20 1.55 1.20 0.40 0 1.35 0.65 2.10 1.45 0.70 0.75 1.80 1.55 2.40 1.75 0.85 0.25 6.70 5.90 9.40 9 4.10 4.70 5.75 6.80 5.75 7.15 0 0.25 0.55 1 1.25 1.65 0.65 0.60 1.45 1.90 1.80 2.85 0.30 0.95 1.10 2.25 1.75 2.90 0.65 0.65 1.20 1.50 1.20 1.85 0 0.35 0.70 1.65 1.50 2.85 0.90 1.30 1.50 2.85 1.50 3.80 0 1 0.45 2.10 1.20 2.90 0.90 0.95 1.30 2.15 1.55 4.20 0.15 1.60 0.50 3.25 0.75 3.65 1.60 2.55 1.95 3.95 2.55 10.75 0.80 8.45 0.80 14.20 0.05 26.40 -0.45 7.35 -0.70 8.75 -1.75 11 -0.70 1.45 -1.40 3.85 -1.55 5.35 -0.20 1.90 -0.60 3 -1.25 3.55 -0.55 0.45 -1.10 1.35 -1.25 2 -0.15 0.65 -0.35 1.80 -0.50 2.55 -0.20 0.75 -0.85 1.95 -1.55 2.70 -0.70 0.75 -1.25 1.85 -1.25 2.45 0 0.60 -0.65 1.70 -1.50 2.40 -0.80 0.75 -1.50 1.80 -1.50 2.35 0 0.55 -0.65 1.70 -1.50 2.60 -0.80 0.85 -1.50 1.80 -1.50 2.15 0 0.30 -0.60 1.15 -1.35 1.90 -0.80 0.70 -2.20 2.30 -3.15 3.60 -0.95 1.25 -2.25 2.40 -2.85 2.55 -0.65 0.20 -1.15 0.60 -1.15 0.95 0 1 -5.30 6.50 -7.25 7.55 -0.95 0.50 -1.75 1.10 -1.75 1.30 0 0.80 -1.70 1.90 -2.95 1.90 -0.95 0 -1.70 0.45 -2.45 1.50 -0.65 0.85 -1.45 1.50 -1.80 1.50 -0.35 0 -1.35 0.70 -2.20 1.50 -1.15 1.05 -2.10 1.50 -3.30 1.50 -1.20 0 -1.90 0.30 -2.45 1.20 -0.50 0.75 -1.50 1.30 -2.65 1.55 -1.05 0.20 -2.50 0.85 -3.30 1.50 -1 0.85 -2.30 1.25 -5 1.50 -2.35 0.25 -4.05 0.70 -4.95 1.35 -1.05 0.80 -2.60 1.10 -6.75 1.45 -6.50 0.50 -26.90 0.45 -32.25 -0.05z m29.25 -32.25 c1.40 -0.70 3.85 -1.50 5.40 -1.70 1.90 -0.25 3.30 -0.80 4.40 -1.70 0.85 -0.75 2.10 -1.35 2.80 -1.35 0.70 0 1.75 -0.60 2.55 -1.50 0.70 -0.80 1.70 -1.50 2.20 -1.50 0.95 0 2.95 -1.65 7.40 -6.05 1.60 -1.55 3.35 -3.10 3.95 -3.40 0.60 -0.30 1.10 -0.90 1.10 -1.30 0 -0.40 0.70 -1.50 1.50 -2.40 0.85 -0.95 1.50 -2 1.50 -2.25 0 -0.30 0.65 -1.30 1.45 -2.20 0.75 -0.90 1.60 -2.20 1.80 -2.90 0.20 -0.70 0.85 -2.05 1.50 -3 0.65 -0.95 1.30 -2.55 1.45 -3.55 0.20 -1.05 0.80 -2.45 1.35 -3.20 2.60 -3.25 2.70 -24.70 0.20 -30 -0.65 -1.35 -1.35 -3.15 -1.55 -4 -0.15 -0.80 -0.95 -2.60 -1.70 -4 -0.75 -1.35 -1.55 -3.05 -1.75 -3.75 -0.55 -1.75 -3.15 -5.55 -4.55 -6.65 -0.65 -0.50 -1.20 -1.15 -1.20 -1.40 0 -0.25 -1.35 -1.80 -3 -3.45 -1.65 -1.65 -3 -3.20 -3 -3.50 0 -0.25 -0.30 -0.50 -0.70 -0.50 -0.40 0 -1.20 -0.60 -1.80 -1.35 -0.55 -0.70 -1.90 -1.70 -3 -2.20 -1.10 -0.50 -2 -1.10 -2 -1.40 0 -0.25 -1.15 -0.85 -2.55 -1.30 -1.40 -0.50 -2.65 -1.15 -2.80 -1.55 -0.15 -0.40 -1.20 -0.95 -2.35 -1.20 -1.10 -0.30 -3.30 -1.10 -4.80 -1.75 -1.85 -0.80 -4.65 -1.40 -8.50 -1.80 -6.55 -0.70 -7.45 -0.70 -15.95 0 -5.20 0.45 -6.45 0.70 -8 1.70 -1 0.70 -2.70 1.40 -3.80 1.60 -1.05 0.20 -2.60 0.85 -3.35 1.50 -0.75 0.65 -2.10 1.35 -3 1.50 -0.90 0.20 -2.40 1 -3.30 1.80 -0.90 0.80 -1.90 1.45 -2.25 1.45 -0.35 0 -1.15 0.70 -1.75 1.50 -0.65 0.85 -1.45 1.50 -1.80 1.50 -0.40 0 -1.05 0.55 -1.50 1.25 -0.45 0.70 -1.10 1.25 -1.45 1.25 -0.35 0 -0.90 0.70 -1.20 1.50 -0.30 0.85 -0.90 1.50 -1.35 1.50 -0.45 0 -1.10 0.80 -1.50 1.75 -0.40 0.95 -1.10 1.75 -1.50 1.75 -0.40 0 -0.85 0.45 -1.05 1 -0.15 0.55 -0.85 1.40 -1.50 1.90 -0.70 0.55 -1.40 1.85 -1.70 3.05 -0.25 1.15 -1 2.95 -1.70 3.95 -0.70 1 -1.50 3.05 -1.85 4.50 -0.35 1.40 -0.95 2.80 -1.35 3 -1.05 0.60 -1.65 5.80 -1.60 14.85 0 9.80 0.50 14.30 1.85 16 0.55 0.65 1.15 2.20 1.30 3.40 0.20 1.25 0.90 2.95 1.55 3.85 0.65 0.90 1.35 2.25 1.50 3 0.15 0.75 0.85 1.85 1.50 2.45 0.70 0.55 1.25 1.35 1.25 1.75 0 0.70 2.10 3.45 5.30 6.90 0.95 1.05 1.70 2.10 1.70 2.40 0 0.25 0.30 0.50 0.65 0.50 0.35 0 2.05 1.35 3.80 3 1.75 1.65 3.45 3 3.80 3 0.35 0 1.55 0.70 2.65 1.50 1.15 0.85 2.50 1.50 2.95 1.50 0.50 0 1.90 0.70 3.15 1.50 1.25 0.80 2.65 1.50 3.15 1.50 0.50 0 2.40 0.60 4.25 1.35 4.50 1.75 7.50 2.10 16.50 1.90 7.10 -0.15 7.85 -0.25 10.30 -1.50z"/>
  <path d="M529.50 319.55 c-0.70 -0.20 -2.15 -0.90 -3.25 -1.50 -1.10 -0.55 -2.25 -1.05 -2.55 -1.05 -0.35 0 -1.55 -0.80 -2.70 -1.75 -1.15 -0.95 -2.30 -1.75 -2.50 -1.75 -0.25 0 -0.55 -0.45 -0.75 -0.95 -0.15 -0.55 -0.95 -1.75 -1.70 -2.75 -0.80 -1 -1.60 -2.65 -1.80 -3.65 -0.15 -1.05 -0.70 -2.45 -1.15 -3.15 -0.80 -1.15 -0.85 -6.45 -1.10 -64.75 -0.15 -34.90 -0.45 -63.95 -0.70 -64.50 -1.40 -3.30 -4.40 -9.25 -4.80 -9.50 -0.25 -0.15 -0.70 -1.15 -1 -2.20 -0.30 -1.15 -0.95 -2.15 -1.75 -2.55 -0.65 -0.35 -1.35 -1.05 -1.50 -1.55 -0.15 -0.45 -0.90 -1.25 -1.65 -1.75 -0.75 -0.45 -1.65 -1.30 -2 -1.80 -0.35 -0.50 -0.95 -0.90 -1.25 -0.90 -0.35 0 -1.40 -0.65 -2.35 -1.40 -1.85 -1.50 -8.60 -4.90 -10.25 -5.20 -0.75 -0.10 -1.05 -0.60 -1.15 -2.05 l-0.15 -1.85 8.95 0 c8.10 0 9.30 0.10 12.65 1.20 2.05 0.65 5.05 1.35 6.70 1.55 1.85 0.20 3.70 0.80 4.75 1.50 0.95 0.65 2.60 1.35 3.60 1.50 1 0.20 2.20 0.80 2.70 1.30 0.45 0.55 1.70 1.20 2.75 1.45 1.05 0.30 2.15 0.95 2.45 1.50 0.30 0.55 1.50 1.40 2.75 1.95 1.25 0.55 2.25 1.20 2.25 1.50 0 0.25 0.45 0.65 1 0.80 1.15 0.35 9 8.05 9 8.80 0 0.50 1.85 3.05 4.60 6.35 0.80 0.90 1.40 2.15 1.40 2.80 0 0.65 0.45 1.55 1 2.05 0.55 0.50 1.35 2.05 1.75 3.45 0.40 1.35 1.15 2.95 1.70 3.50 0.50 0.60 1.10 2.15 1.30 3.55 0.20 1.35 0.85 3.40 1.50 4.50 0.70 1.20 1.25 3.30 1.50 5.25 0.15 1.80 0.80 4.85 1.40 6.75 1.10 3.50 1.10 3.50 1.10 51.85 l0 48.35 -1.10 1.05 c-0.65 0.55 -1.30 1.95 -1.45 3.05 -0.25 1.45 -0.65 2.15 -1.45 2.45 -0.60 0.25 -1.25 1 -1.45 1.70 -0.15 0.70 -0.50 1.30 -0.75 1.30 -0.25 0 -1.15 0.55 -1.95 1.25 -0.85 0.70 -2.25 1.55 -3.20 1.85 -0.90 0.30 -2.30 1 -3.15 1.60 -1.30 0.90 -2.30 1.05 -8.25 1.15 -3.70 0.05 -7.30 -0.05 -8 -0.30z"/>
  <path d="M422.60 203.40 c-0.85 -0.85 -0.85 -25.40 0.05 -26.55 0.55 -0.75 3 -0.80 25.70 -0.90 19.50 -0.05 25.30 0.05 25.90 0.55 1.55 1.30 1.85 4.15 1.65 14.60 -0.15 8.70 -0.30 10.40 -1.05 11.55 l-0.85 1.35 -25.40 0 c-19.10 0 -25.55 -0.15 -26 -0.60z"/>
  <path d="M189.75 179.50 c-1.90 -0.25 -5.30 -0.80 -7.50 -1.25 -2.20 -0.45 -7.70 -1 -12.25 -1.25 -5.10 -0.25 -9.95 -0.80 -12.75 -1.45 -3 -0.70 -7.70 -1.20 -14.25 -1.55 -6.75 -0.35 -11 -0.80 -13.75 -1.50 -2.75 -0.70 -6.90 -1.15 -13.25 -1.50 -6.75 -0.30 -10.70 -0.75 -14.75 -1.70 -4.30 -0.95 -7.35 -1.30 -14 -1.45 -7 -0.20 -9.10 -0.45 -11.75 -1.35 -2.60 -0.85 -5.10 -1.15 -12.50 -1.50 -5.10 -0.20 -10.05 -0.65 -11 -0.90 -0.95 -0.30 -2.70 -0.75 -3.85 -1.05 -3.75 -1 -4.20 -1.70 -4.30 -6.70 -0.10 -4.40 -0.10 -4.45 1.55 -5.90 l1.60 -1.45 85.50 0 c47.35 0 85.50 -0.20 85.50 -0.45 0 -0.20 0.90 -1.45 2 -2.70 1.10 -1.25 2 -2.60 2 -3 0 -1.60 -3.70 -4.70 -7 -5.90 -3.80 -1.35 0.45 -1.20 -49.50 -1.65 -20.75 -0.20 -41.35 -0.60 -45.75 -0.90 -4.40 -0.35 -9.85 -0.55 -12.05 -0.50 -2.25 0.10 -8.30 -0.20 -13.50 -0.60 -5.90 -0.50 -16.55 -0.80 -28.20 -0.85 l-18.75 -0.05 -1.65 -1.55 c-1.50 -1.45 -1.60 -1.75 -1.60 -5.20 l0 -3.60 2.35 -1.40 2.40 -1.40 35 -0.30 c22.35 -0.20 40.25 -0.60 49.50 -1.15 18.55 -1.05 44.55 -1.75 65.40 -1.80 11.10 0 16.75 -0.20 17.50 -0.55 1.55 -0.80 4.85 -4.05 4.85 -4.80 0 -0.85 -2.40 -4.30 -3.35 -4.85 -0.45 -0.25 -11.20 -0.65 -23.85 -0.85 -12.70 -0.25 -25.30 -0.65 -28.05 -0.90 -4.60 -0.45 -17.85 -0.75 -91.75 -2 l-25.80 -0.45 -2.05 -1.40 c-2.35 -1.50 -2.95 -3.05 -2.45 -6.35 0.75 -4.65 1.35 -4.85 15.90 -4.85 7.85 0 12.40 -0.20 12.70 -0.50 1.05 -1.05 27.30 -1.90 81.45 -2.55 41.30 -0.55 52.60 -0.90 59.25 -1.90 5.55 -0.80 5.90 -0.95 6.70 -2.45 0.40 -0.80 1.10 -1.70 1.50 -2.05 1.15 -1 0.95 -2.30 -0.55 -3.95 -0.80 -0.80 -1.70 -1.85 -2.05 -2.30 -0.60 -0.75 -8.10 -0.80 -85.75 -0.80 l-85.15 0 -1.85 -1.70 -1.85 -1.70 0 -4.40 0 -4.40 2.05 -1.80 2 -1.85 8.85 -0.30 c6.20 -0.20 10.20 -0.60 13.35 -1.30 2.80 -0.65 8.05 -1.25 13.70 -1.55 6.05 -0.35 10.60 -0.85 13.15 -1.50 2.55 -0.65 6.35 -1.10 11 -1.30 4.25 -0.15 9.80 -0.75 13.65 -1.45 3.60 -0.70 10.45 -1.45 15.25 -1.75 4.80 -0.25 11.25 -0.95 14.25 -1.50 3.05 -0.60 9.35 -1.25 14 -1.50 5.70 -0.30 10.05 -0.85 13.25 -1.60 4.60 -1.10 5.50 -1.15 30.25 -1.15 l25.50 0 2.50 1.15 c1.40 0.65 4.10 1.40 6.05 1.60 2.15 0.25 4.45 0.95 5.95 1.70 1.30 0.70 3 1.30 3.80 1.30 0.75 0 2 0.55 2.80 1.20 0.75 0.65 2.25 1.40 3.25 1.75 1 0.35 2.10 0.95 2.45 1.35 0.35 0.40 1.30 1.05 2.15 1.40 1.30 0.55 6 4.60 8.05 6.85 0.30 0.30 1.25 1.25 2.15 2.10 0.85 0.85 1.60 1.85 1.60 2.25 0 0.40 0.55 1.15 1.25 1.70 0.70 0.55 1.25 1.25 1.25 1.55 0 0.35 0.55 1.20 1.20 1.90 0.65 0.70 1.55 2 2 2.85 0.45 0.90 1.15 1.60 1.55 1.60 0.35 0 1.15 0.60 1.75 1.35 0.55 0.70 1.90 1.70 3 2.20 1.10 0.50 2 1.10 2 1.40 0 0.25 0.65 0.70 1.50 0.95 0.80 0.30 2 1.10 2.60 1.75 0.70 0.75 1.95 1.30 3.15 1.45 1.15 0.15 3.50 0.90 5.25 1.70 l3.25 1.45 97.75 0.25 c53.75 0.15 98.25 0.45 98.85 0.70 0.60 0.20 1.20 0.70 1.35 1.10 0.20 0.45 1.10 0.70 2.90 0.70 3.95 0.05 6.85 0.75 7.95 1.95 0.65 0.70 1.60 1.05 2.75 1.05 2 0 4.45 1.10 4.85 2.25 0.20 0.40 0.90 0.75 1.60 0.75 0.70 0 1.70 0.55 2.30 1.20 0.60 0.70 1.95 1.60 3 2 1.05 0.45 2.15 1.25 2.45 1.80 0.30 0.55 0.95 1 1.50 1 0.55 0 1.30 0.55 1.75 1.15 0.40 0.65 1.30 1.45 1.95 1.75 0.65 0.30 1.35 0.95 1.50 1.50 0.20 0.50 0.90 1.20 1.55 1.50 0.70 0.30 1.25 0.90 1.25 1.35 0 0.40 0.70 1.05 1.50 1.50 0.85 0.45 1.50 1.10 1.50 1.50 0 0.40 0.70 1.05 1.50 1.50 0.90 0.45 1.50 1.15 1.50 1.75 0 0.55 0.55 1.35 1.20 1.75 0.75 0.50 1.30 1.45 1.50 2.75 0.25 1.55 0.65 2.15 1.80 2.75 1.20 0.60 1.50 1.10 1.50 2.30 0 1.05 0.55 2.15 1.50 3.30 1.05 1.20 1.50 2.20 1.50 3.45 0 1.15 0.40 2.30 1.20 3.20 0.70 0.85 1.30 2.45 1.50 3.85 0.20 1.30 0.85 3.85 1.45 5.65 1.05 3.05 1.10 4.15 1.10 18 l0 14.75 -1.80 0.15 c-1.75 0.15 -1.85 0.05 -2.60 -2 -1.45 -4.05 -3.20 -7.90 -3.95 -8.80 -0.45 -0.45 -1.20 -1.65 -1.65 -2.60 -1.80 -3.50 -10.40 -12.25 -12.55 -12.70 -0.95 -0.20 -1.80 -0.80 -2.10 -1.55 -0.30 -0.65 -1.15 -1.30 -2 -1.50 -0.85 -0.15 -1.90 -0.75 -2.35 -1.25 -0.50 -0.55 -1.70 -1.20 -2.70 -1.55 -1 -0.30 -2.35 -1.10 -3.05 -1.70 -0.70 -0.65 -2.15 -1.35 -3.25 -1.55 -1.10 -0.15 -2.90 -0.85 -4 -1.50 -1.20 -0.65 -3.30 -1.25 -5.25 -1.45 -1.90 -0.20 -4.40 -0.90 -6 -1.70 l-2.75 -1.30 -96.25 -0.15 c-52.95 -0.10 -98.75 0 -101.85 0.15 -4.50 0.30 -5.75 0.55 -6.60 1.30 -1.25 1.15 -3.20 1.95 -4.80 1.95 -0.75 0 -1.55 0.50 -2.05 1.25 -0.45 0.70 -1.30 1.25 -1.90 1.25 -2 0 -3.20 0.60 -3.75 1.80 -0.30 0.65 -1.10 1.45 -1.80 1.70 -0.70 0.25 -1.25 0.75 -1.25 1.05 0 0.30 -1.45 1.95 -3.20 3.70 -1.80 1.70 -3.40 3.70 -3.55 4.40 -0.20 0.70 -0.90 1.65 -1.55 2.10 -0.65 0.40 -1.20 1.05 -1.20 1.40 0 0.35 -0.80 1.35 -1.75 2.30 -0.95 0.90 -1.75 1.80 -1.75 2.05 0 0.25 -0.45 0.55 -0.95 0.75 -0.50 0.15 -1.05 0.70 -1.20 1.25 -0.15 0.55 -0.90 1.25 -1.65 1.50 -0.75 0.30 -1.70 0.95 -2.05 1.50 -0.35 0.50 -1.50 1.20 -2.50 1.55 -1.05 0.35 -2.30 1.15 -2.80 1.80 -0.55 0.70 -1.45 1.15 -2.30 1.15 -0.85 0 -2.10 0.60 -3.10 1.50 -1 0.90 -2.25 1.50 -3.10 1.50 -0.80 0 -2.70 0.60 -4.20 1.35 -1.90 0.85 -4.20 1.45 -6.85 1.70 -2.25 0.20 -5.30 0.90 -6.80 1.50 -2.65 1.10 -3.35 1.15 -21.50 1.25 -10.30 0.05 -20.30 -0.10 -22.25 -0.30z"/>
 </g>
 <g fill="#ffffff">
  <path d="M0 275 l0 -275 313 0 313 0 0 275 0 275 -313 0 -313 0 0 -275z m455.75 232.60 c2.20 -0.60 6.60 -1.25 9.75 -1.50 3.90 -0.30 6.35 -0.70 7.50 -1.30 0.95 -0.50 3.65 -1.20 5.95 -1.55 2.45 -0.40 4.70 -1.05 5.50 -1.65 0.80 -0.60 2.60 -1.05 4.75 -1.30 3.45 -0.35 4.95 -0.85 6.20 -2.15 0.35 -0.35 1.30 -0.65 2 -0.65 2.15 0 4.70 -0.90 5.40 -1.90 0.40 -0.60 1.55 -1.10 3.10 -1.30 1.35 -0.15 3.15 -0.85 4.10 -1.55 0.95 -0.70 2.05 -1.25 2.55 -1.25 0.45 0 1.70 -0.60 2.75 -1.30 1.05 -0.75 2.65 -1.55 3.55 -1.80 0.85 -0.25 2.10 -1 2.75 -1.65 0.65 -0.70 1.65 -1.25 2.30 -1.25 0.65 0 1.70 -0.55 2.35 -1.25 0.70 -0.65 2.25 -1.65 3.50 -2.20 1.25 -0.55 2.25 -1.20 2.25 -1.45 0 -0.30 0.70 -0.75 1.50 -1.05 0.85 -0.30 1.70 -1.05 2 -1.75 0.25 -0.75 0.80 -1.30 1.20 -1.30 0.40 0 1.20 -0.65 1.80 -1.50 0.60 -0.80 1.30 -1.50 1.60 -1.50 0.65 0 4.90 -4.30 4.90 -5 0 -0.25 0.45 -0.60 1 -0.75 0.55 -0.15 1.15 -0.85 1.30 -1.50 0.15 -0.65 0.80 -1.55 1.45 -1.95 0.65 -0.45 1.35 -1.30 1.55 -1.90 0.15 -0.65 1 -1.90 1.75 -2.80 0.80 -0.90 1.45 -2 1.45 -2.40 0 -0.45 0.55 -1.45 1.20 -2.20 0.65 -0.80 1.35 -2.45 1.55 -3.85 0.20 -1.30 0.85 -3.05 1.40 -3.90 1.05 -1.40 1.10 -2.05 1.10 -11 0 -9.45 0 -9.50 -1.35 -12 -0.80 -1.35 -1.40 -3 -1.40 -3.65 0 -0.65 -0.55 -1.65 -1.20 -2.25 -1.10 -1.05 -1.40 -1.65 -2 -4.40 -0.15 -0.75 -0.75 -1.45 -1.30 -1.60 -0.55 -0.15 -1 -0.70 -1 -1.20 0 -0.55 -0.80 -1.65 -1.75 -2.50 -0.95 -0.85 -1.75 -2 -1.75 -2.50 0 -0.50 -0.60 -1.50 -1.35 -2.20 -0.80 -0.70 -1.80 -1.70 -2.25 -2.25 -0.90 -1 -1.60 -1.70 -3.05 -3.10 -0.50 -0.45 -1.50 -1.45 -2.25 -2.20 -0.75 -0.75 -1.95 -1.50 -2.65 -1.65 -0.75 -0.20 -1.95 -1 -2.75 -1.80 -0.75 -0.80 -1.65 -1.45 -1.95 -1.45 -0.35 0 -1.30 -0.65 -2.15 -1.50 -0.90 -0.80 -2.05 -1.50 -2.60 -1.50 -0.55 0 -1.60 -0.65 -2.35 -1.50 -0.75 -0.85 -1.80 -1.50 -2.45 -1.50 -0.65 0 -1.55 -0.40 -2.05 -0.95 -1.25 -1.25 -2.85 -2.05 -4.25 -2.05 -0.70 0 -1.85 -0.65 -2.65 -1.50 -1 -1.05 -1.90 -1.50 -3.05 -1.50 -1 0 -2.20 -0.50 -3.15 -1.25 -1 -0.85 -2.35 -1.40 -4.05 -1.60 -1.65 -0.20 -2.70 -0.60 -3 -1.15 -0.45 -0.85 -3.90 -2 -6 -2 -0.55 0 -1.70 -0.50 -2.50 -1.05 -1.05 -0.80 -2.75 -1.25 -6.25 -1.65 -2.75 -0.30 -4.95 -0.80 -5.20 -1.20 -0.55 -0.90 -3.20 -1.55 -7.80 -1.90 -2.20 -0.20 -4.60 -0.65 -5.40 -1.05 -0.75 -0.35 -2.55 -0.90 -4 -1.15 -5 -0.95 -30.15 -1.45 -46.35 -1 -13.55 0.40 -16.30 0.60 -19.50 1.50 -2.05 0.60 -5.90 1.30 -8.50 1.55 -3.25 0.35 -5.45 0.85 -7.05 1.65 -1.40 0.70 -3.75 1.35 -5.95 1.55 -2.65 0.25 -3.90 0.65 -4.65 1.40 -0.70 0.70 -2.05 1.20 -4.05 1.45 -2.30 0.30 -3.30 0.70 -4.15 1.65 -0.60 0.70 -1.65 1.25 -2.30 1.25 -1.80 0 -4.35 1 -4.35 1.70 0 0.35 -1.25 1 -2.75 1.50 -1.55 0.45 -2.95 1.25 -3.25 1.80 -0.30 0.55 -0.95 1 -1.45 1 -0.50 0 -1.50 0.70 -2.20 1.50 -0.75 0.85 -1.70 1.50 -2.10 1.50 -0.40 0 -1.45 0.70 -2.35 1.50 -0.85 0.85 -1.85 1.50 -2.20 1.50 -0.35 0 -0.95 0.60 -1.35 1.30 -0.35 0.70 -1.20 1.55 -1.90 1.85 -0.65 0.35 -1.25 1.15 -1.35 1.75 -0.10 0.70 -0.50 1.10 -1.10 1.10 -0.55 0 -1.25 0.50 -1.55 1.15 -1.15 2.10 -10.20 10.70 -11.70 11.05 -0.85 0.20 -2.05 0.90 -2.75 1.50 -0.70 0.65 -2.15 1.30 -3.20 1.45 -1.10 0.20 -2.55 0.85 -3.25 1.50 -1.15 1.10 -2 1.30 -7.05 1.65 -7.45 0.60 -188.75 0.60 -199.25 0 -7.35 -0.40 -8.25 -0.55 -10.95 -1.85 -2.10 -1.05 -3.70 -1.45 -5.55 -1.45 -2.15 0 -2.95 -0.25 -4.50 -1.50 -1.05 -0.80 -2.40 -1.50 -3.05 -1.50 -0.60 0 -1.80 -0.60 -2.70 -1.30 -0.85 -0.70 -2.45 -1.50 -3.60 -1.75 -1.15 -0.30 -2.45 -1 -3 -1.70 -0.55 -0.70 -1.40 -1.25 -1.90 -1.25 -0.50 0 -1.25 -0.45 -1.60 -0.95 -0.40 -0.50 -1.50 -1.45 -2.50 -2.05 -2.30 -1.35 -7.75 -6.55 -9.95 -9.50 -3.10 -4.20 -5.45 -7.80 -5.45 -8.50 0 -0.35 -0.55 -1.60 -1.20 -2.70 -0.65 -1.15 -1.35 -2.80 -1.55 -3.65 -0.35 -1.70 -1.20 -2.70 -1.30 -1.55 -0.05 0.35 -0.05 6.40 0.05 13.40 0.10 12.10 0.15 12.90 1.35 16 0.65 1.75 1.30 4.60 1.50 6.25 0.15 1.75 0.70 3.60 1.30 4.40 0.55 0.80 1.20 2.35 1.45 3.50 0.25 1.15 1 2.80 1.70 3.70 0.65 0.85 1.20 1.90 1.20 2.25 0 0.40 0.65 1.35 1.45 2.10 0.80 0.75 1.60 2.15 1.75 3.05 0.20 0.95 0.85 2 1.55 2.45 0.70 0.45 1.25 1.10 1.25 1.50 0 0.90 12.80 13.80 13.75 13.80 0.40 0 1.05 0.55 1.35 1.25 0.40 0.90 0.95 1.25 2.05 1.25 0.95 0 1.90 0.50 2.85 1.50 0.75 0.85 1.60 1.50 1.80 1.50 0.20 0 1.25 0.60 2.30 1.30 1.05 0.75 2.95 1.50 4.20 1.75 1.30 0.25 3.10 1 4 1.70 1.05 0.80 2.30 1.25 3.45 1.25 0.95 0 3.20 0.60 4.90 1.40 l3.10 1.35 100 0.25 100 0.25 3.45 1.40 c1.85 0.75 4.05 1.35 4.80 1.35 0.75 0 2.15 0.65 3.20 1.45 1 0.80 2.55 1.60 3.40 1.75 1.05 0.20 2.70 1.30 4.55 3.05 1.60 1.50 3.10 2.75 3.35 2.75 0.25 0 0.85 0.60 1.35 1.40 0.50 0.75 2.15 2.65 3.75 4.25 1.55 1.55 3 3.30 3.15 3.85 0.15 0.50 1.15 1.45 2.15 2.10 1 0.60 2.25 1.60 2.70 2.20 0.50 0.60 1.45 1.25 2.15 1.40 0.70 0.20 1.25 0.65 1.25 1.05 0 0.75 4.25 3.70 6.90 4.75 0.90 0.35 1.85 1.05 2.10 1.50 0.30 0.55 1.35 1.05 2.60 1.25 1.20 0.20 2.75 0.90 3.55 1.55 0.75 0.60 2.40 1.30 3.65 1.50 1.25 0.15 2.65 0.75 3.10 1.25 1.05 1.10 3.25 1.95 5.05 1.95 0.80 0 2.65 0.55 4.10 1.25 1.50 0.65 4.25 1.35 6.20 1.55 1.95 0.20 4.50 0.85 5.75 1.45 1.75 0.90 3.55 1.20 8.25 1.45 3.30 0.20 7.35 0.70 9 1.10 5.55 1.45 9 1.60 28.75 1.50 18.30 -0.15 20.05 -0.20 23.75 -1.20z m-337.30 -106.05 c0.75 -0.45 0.50 -0.60 -2.70 -1.30 -0.80 -0.15 -2.30 -0.85 -3.25 -1.50 -0.95 -0.60 -2.55 -1.30 -3.55 -1.45 -1.25 -0.20 -1.90 -0.65 -2.10 -1.30 -0.15 -0.55 -0.85 -1.20 -1.55 -1.50 -0.75 -0.25 -1.50 -1 -1.75 -1.65 -0.25 -0.70 -0.95 -1.35 -1.50 -1.50 -0.55 -0.15 -1.25 -0.80 -1.50 -1.50 -0.30 -0.70 -1 -1.55 -1.55 -1.85 -0.60 -0.30 -1.40 -1.30 -1.75 -2.20 -0.40 -0.90 -1.05 -1.90 -1.45 -2.25 -0.40 -0.35 -1.10 -1.80 -1.55 -3.20 -0.50 -1.45 -1.35 -3 -1.90 -3.55 l-1.10 -0.90 -0.25 -64.85 -0.25 -64.85 -1.10 -1.40 c-0.65 -0.80 -1.15 -2 -1.15 -2.65 0 -2.80 -2.05 -5.35 -8.15 -10.25 -0.95 -0.80 -2.20 -1.40 -2.75 -1.40 -0.60 0 -1.90 -0.60 -2.95 -1.30 -1.80 -1.25 -2.15 -1.30 -7.50 -1.10 -4.85 0.15 -5.70 0.30 -6.75 1.20 -0.65 0.60 -1.90 1.25 -2.75 1.45 -0.90 0.15 -1.95 0.75 -2.35 1.30 -0.35 0.55 -1.35 1.20 -2.10 1.40 -0.80 0.20 -1.70 0.90 -2.05 1.55 -0.30 0.65 -1.05 1.55 -1.55 2 -0.55 0.40 -1.10 1.65 -1.25 2.70 -0.20 1.30 -0.75 2.35 -1.60 3 l-1.30 1.05 0.15 47.50 c0.15 47.30 0.20 47.50 1.25 50 0.60 1.40 1.25 4.25 1.45 6.25 0.20 2.45 0.75 4.45 1.45 5.75 0.65 1.10 1.30 3.10 1.50 4.45 0.20 1.35 0.85 3.15 1.50 4 0.60 0.85 1.30 2.35 1.50 3.30 0.20 0.95 0.90 2.40 1.55 3.15 0.65 0.80 1.20 1.75 1.20 2.10 0 0.35 0.80 1.60 1.75 2.75 0.95 1.15 1.75 2.30 1.75 2.60 0 0.75 2.15 3.25 6.75 7.95 5.10 5.15 5.65 5.70 7.50 6.60 0.85 0.40 1.90 1.20 2.45 1.75 0.50 0.60 1.55 1.20 2.40 1.35 0.80 0.20 1.60 0.65 1.75 1 0.10 0.40 1.40 1.10 2.80 1.55 1.45 0.45 3.30 1.25 4.15 1.75 0.85 0.55 3.35 1.25 5.55 1.65 2.20 0.40 4.55 1 5.20 1.35 2 1.10 17.95 1.90 19.40 1z m197.75 -41.50 c4.15 -0.35 5.70 -0.65 6.75 -1.45 0.90 -0.65 2.60 -1.10 4.95 -1.35 2.70 -0.25 4 -0.65 5 -1.50 0.80 -0.65 2.25 -1.30 3.30 -1.50 1.15 -0.25 2.15 -0.80 2.65 -1.55 0.55 -0.90 1.25 -1.20 2.45 -1.20 1.20 0 2.15 -0.45 3.30 -1.50 0.85 -0.80 1.85 -1.50 2.20 -1.50 0.35 0 1.15 -0.65 1.80 -1.50 0.75 -1.05 1.50 -1.50 2.45 -1.50 1.25 0 2.95 -1.10 2.95 -1.90 0 -0.20 0.80 -0.80 1.75 -1.30 1.95 -1.05 7.25 -6.55 7.25 -7.55 0 -0.35 0.50 -0.75 1.15 -0.95 0.60 -0.15 1.90 -1.30 2.85 -2.55 0.95 -1.30 2.35 -2.90 3.15 -3.60 0.75 -0.75 1.35 -1.60 1.35 -1.90 0 -0.35 0.70 -1.30 1.50 -2.15 0.85 -0.90 1.50 -2.05 1.50 -2.60 0 -0.55 0.65 -1.55 1.45 -2.30 0.95 -0.80 1.55 -1.95 1.75 -3.25 0.20 -1.10 0.55 -1.85 0.80 -1.70 0.60 0.35 1.80 -2 2.15 -4.40 0.15 -1.05 0.75 -2.30 1.35 -2.75 0.70 -0.60 1.10 -1.65 1.30 -3.60 0.15 -1.50 0.85 -3.90 1.55 -5.35 1.05 -2.25 1.30 -3.65 1.75 -11 0.70 -12.10 0.70 -15.05 -0.05 -23.40 -0.60 -6.80 -0.95 -8.20 -2.55 -10.75 -0.25 -0.40 -0.60 -2.05 -0.75 -3.65 -0.25 -2.05 -0.65 -3.25 -1.55 -4.20 -0.75 -0.80 -1.20 -1.90 -1.20 -2.90 0 -0.95 -0.60 -2.50 -1.50 -3.80 -0.80 -1.20 -1.50 -2.50 -1.50 -2.85 0 -0.35 -0.55 -1.20 -1.20 -1.85 -0.65 -0.65 -1.45 -1.95 -1.75 -2.90 -0.35 -0.95 -1.15 -2.25 -1.80 -2.85 -0.70 -0.65 -1.25 -1.40 -1.25 -1.65 0 -0.35 -1.65 -2.45 -5.75 -7.15 -2.70 -3.10 -8.55 -8.75 -9.40 -9 -0.60 -0.20 -1.70 -1 -2.40 -1.75 -0.75 -0.80 -1.70 -1.45 -2.10 -1.45 -0.40 0 -1.10 -0.55 -1.55 -1.20 -0.40 -0.65 -1.45 -1.35 -2.30 -1.55 -0.80 -0.20 -1.70 -0.75 -2 -1.20 -0.25 -0.50 -1.20 -1.20 -2.10 -1.55 -0.90 -0.40 -2.20 -1.10 -2.85 -1.60 -0.65 -0.50 -2.05 -1.15 -3.15 -1.40 -1.05 -0.30 -2.70 -1.05 -3.60 -1.70 -0.95 -0.65 -2.80 -1.30 -4.15 -1.45 -1.35 -0.15 -3.25 -0.75 -4.20 -1.30 -1.10 -0.65 -3.40 -1.15 -6.65 -1.55 -2.70 -0.30 -7.15 -0.85 -9.85 -1.25 -6.15 -0.95 -9.60 -0.95 -14.70 0 -2.20 0.40 -6.20 0.95 -8.95 1.25 -3.20 0.30 -5.45 0.80 -6.50 1.45 -0.85 0.50 -2.95 1.15 -4.65 1.45 -1.70 0.30 -3.75 1 -4.50 1.55 -0.75 0.55 -2.35 1.25 -3.45 1.50 -1.15 0.30 -2.60 0.95 -3.25 1.50 -0.65 0.50 -1.70 1.05 -2.30 1.25 -0.60 0.20 -1.90 1 -2.90 1.80 -1.05 0.85 -2.20 1.50 -2.55 1.50 -0.35 0 -1.05 0.55 -1.60 1.25 -0.55 0.70 -1.35 1.25 -1.80 1.25 -0.60 0 -9.60 7.55 -12.40 10.40 -1.60 1.60 -3.90 4.65 -4.60 6 -0.45 0.85 -1.05 1.60 -1.30 1.60 -0.30 0 -0.80 0.60 -1.15 1.40 -0.30 0.75 -1.10 1.75 -1.65 2.20 -0.60 0.50 -1.25 1.65 -1.40 2.60 -0.20 1 -0.80 2.05 -1.50 2.50 -0.70 0.40 -1.35 1.50 -1.55 2.40 -0.20 0.90 -0.90 2.30 -1.50 3.15 -0.60 0.80 -1.25 2.35 -1.40 3.40 -0.15 1.05 -0.85 2.55 -1.55 3.40 -1 1.15 -1.30 2.10 -1.30 3.85 0 1.50 -0.50 3.35 -1.35 5.10 -1.20 2.50 -1.35 3.55 -1.80 12.40 -0.35 6.40 -0.35 12.90 -0.05 19.05 0.45 8.55 0.60 9.50 1.65 10.95 0.75 1.05 1.30 2.80 1.55 4.85 0.25 1.90 0.80 3.80 1.45 4.65 0.55 0.80 1.20 2.35 1.45 3.45 0.25 1.10 1.05 2.85 1.80 3.95 0.70 1.05 1.30 2.35 1.30 2.80 0 0.50 0.55 1.40 1.25 2 0.70 0.60 1.25 1.30 1.25 1.60 0 0.30 0.80 1.55 1.75 2.75 0.95 1.20 1.75 2.45 1.75 2.80 0 0.35 0.60 1.30 1.40 2.10 0.75 0.80 2.25 2.55 3.30 3.80 1.10 1.30 2.30 2.35 2.65 2.35 0.35 0 0.65 0.20 0.65 0.45 0 0.50 6.30 6.90 8.80 9 0.80 0.60 2.15 1.45 3.05 1.85 0.85 0.35 1.70 0.90 1.85 1.15 0.65 1 6.60 4.65 8.05 4.90 0.80 0.15 2 0.70 2.55 1.25 0.60 0.55 2.20 1.25 3.60 1.60 1.35 0.40 2.95 1.15 3.50 1.70 0.70 0.70 1.95 1.10 3.95 1.30 1.60 0.20 3.80 0.80 4.85 1.40 1.20 0.60 3.50 1.20 5.75 1.40 5.35 0.50 22.75 0.55 29.25 0.05z m228.05 -42.85 c0.85 -0.60 2.25 -1.30 3.15 -1.60 0.95 -0.30 2.35 -1.15 3.20 -1.85 0.80 -0.70 1.70 -1.25 1.95 -1.25 0.25 0 0.60 -0.60 0.75 -1.30 0.20 -0.70 0.85 -1.45 1.45 -1.70 0.80 -0.30 1.20 -1 1.45 -2.45 0.15 -1.10 0.80 -2.50 1.45 -3.05 l1.10 -1.05 0 -46.85 c0 -46.80 0 -46.85 -1.10 -50.35 -0.60 -1.90 -1.25 -4.95 -1.40 -6.75 -0.25 -1.95 -0.80 -4.05 -1.50 -5.25 -0.65 -1.10 -1.30 -3.15 -1.50 -4.50 -0.20 -1.40 -0.80 -2.95 -1.30 -3.55 -0.55 -0.55 -1.30 -2.15 -1.70 -3.50 -0.40 -1.40 -1.20 -2.95 -1.75 -3.45 -0.55 -0.50 -1 -1.40 -1 -2.05 0 -0.65 -0.60 -1.90 -1.40 -2.80 -2.75 -3.30 -4.60 -5.85 -4.60 -6.35 0 -0.75 -7.85 -8.45 -9 -8.80 -0.55 -0.15 -1 -0.55 -1 -0.80 0 -0.30 -1 -0.95 -2.25 -1.50 -1.25 -0.55 -2.45 -1.40 -2.75 -1.95 -0.30 -0.55 -1.40 -1.20 -2.45 -1.50 -1.05 -0.25 -2.30 -0.90 -2.75 -1.45 -0.50 -0.50 -1.70 -1.10 -2.70 -1.30 -1 -0.15 -2.65 -0.85 -3.60 -1.50 -1.05 -0.70 -2.90 -1.30 -4.75 -1.50 -1.65 -0.20 -4.65 -0.90 -6.70 -1.55 -3.20 -1.05 -4.60 -1.20 -11.15 -1.20 -4.85 0 -7.35 0.20 -7.15 0.50 0.15 0.25 0.65 0.50 1.10 0.50 1.20 0 8.15 3.50 10.15 5.10 0.95 0.75 2 1.40 2.35 1.40 0.30 0 0.90 0.40 1.25 0.90 0.35 0.50 1.25 1.35 2 1.80 0.75 0.50 1.50 1.30 1.65 1.75 0.15 0.50 0.85 1.20 1.50 1.55 0.80 0.40 1.45 1.40 1.75 2.55 0.30 1.05 0.75 2.05 1 2.20 0.40 0.25 3.40 6.20 4.80 9.50 0.25 0.55 0.55 29.60 0.70 64.50 0.25 58.30 0.30 63.60 1.10 64.75 0.45 0.70 1 2.10 1.15 3.15 0.20 1 1 2.65 1.80 3.65 0.75 1 1.55 2.20 1.70 2.75 0.20 0.50 0.50 0.95 0.75 0.95 0.20 0 1.35 0.80 2.50 1.75 1.15 0.95 2.35 1.75 2.70 1.75 0.30 0 1.45 0.50 2.55 1.05 3.20 1.75 4.20 1.90 9.75 1.80 4.40 -0.10 5.50 -0.30 6.75 -1.15z m-70.90 -116 c0.70 -1.10 0.90 -2.90 1.05 -10.20 0.20 -8.95 -0.15 -11.75 -1.60 -13 -0.50 -0.35 -7.65 -0.55 -24.35 -0.50 -21.60 0 -23.75 0.10 -24.30 0.85 -0.90 1.15 -0.90 22.70 -0.05 23.55 0.45 0.45 6.60 0.60 24.50 0.60 l23.90 0 0.85 -1.30z m-241.35 -24.15 c1.50 -0.60 4.55 -1.30 6.80 -1.50 2.65 -0.25 4.95 -0.85 6.85 -1.70 1.50 -0.75 3.40 -1.35 4.20 -1.35 0.85 0 2.10 -0.60 3.10 -1.50 1 -0.90 2.25 -1.50 3.10 -1.50 0.85 0 1.75 -0.45 2.30 -1.15 0.50 -0.65 1.75 -1.45 2.80 -1.80 1 -0.35 2.15 -1.05 2.50 -1.55 0.35 -0.55 1.30 -1.20 2.05 -1.50 0.75 -0.25 1.50 -0.95 1.65 -1.50 0.15 -0.55 0.70 -1.10 1.20 -1.25 0.50 -0.20 0.95 -0.50 0.95 -0.75 0 -0.25 0.80 -1.15 1.75 -2.05 0.95 -0.95 1.75 -1.95 1.75 -2.30 0 -0.35 0.55 -1 1.20 -1.40 0.65 -0.45 1.35 -1.40 1.55 -2.10 0.15 -0.70 1.75 -2.70 3.55 -4.40 1.75 -1.75 3.20 -3.40 3.20 -3.70 0 -0.30 0.55 -0.80 1.25 -1.05 0.70 -0.25 1.50 -1.05 1.80 -1.70 0.55 -1.20 1.75 -1.80 3.75 -1.80 0.60 0 1.45 -0.55 1.90 -1.25 0.50 -0.75 1.30 -1.25 2.05 -1.25 1.60 0 3.55 -0.80 4.80 -1.95 0.85 -0.75 2.10 -1 6.60 -1.30 3.10 -0.15 49.60 -0.25 103.35 -0.15 l97.75 0.15 2.75 1.30 c1.60 0.80 4.10 1.50 6 1.70 1.95 0.20 4.05 0.80 5.25 1.45 1.10 0.65 2.90 1.35 4 1.50 1.10 0.20 2.55 0.90 3.25 1.55 0.70 0.60 2.05 1.40 3.05 1.70 1 0.35 2.20 1 2.70 1.55 0.45 0.50 1.50 1.10 2.35 1.25 0.85 0.20 1.70 0.85 2 1.50 0.30 0.75 1.15 1.35 2.10 1.55 2.15 0.45 10.75 9.20 12.55 12.70 0.45 0.95 1.20 2.15 1.65 2.60 0.75 0.90 2.50 4.75 3.95 8.80 1.45 4.05 1.75 1.70 1.55 -11.95 -0.20 -11.85 -0.30 -13.50 -1.25 -16 -0.55 -1.50 -1.20 -3.95 -1.40 -5.35 -0.20 -1.65 -0.80 -3.20 -1.55 -4.05 -0.80 -0.95 -1.20 -2.05 -1.20 -3.25 0 -1.25 -0.45 -2.25 -1.50 -3.45 -0.95 -1.15 -1.50 -2.25 -1.50 -3.30 0 -1.20 -0.30 -1.70 -1.50 -2.30 -1.15 -0.60 -1.55 -1.20 -1.80 -2.75 -0.20 -1.30 -0.75 -2.25 -1.50 -2.75 -0.65 -0.40 -1.20 -1.20 -1.20 -1.75 0 -0.60 -0.60 -1.30 -1.50 -1.75 -0.80 -0.45 -1.50 -1.10 -1.50 -1.50 0 -0.40 -0.65 -1.05 -1.50 -1.50 -0.80 -0.45 -1.50 -1.10 -1.50 -1.50 0 -0.45 -0.55 -1.05 -1.25 -1.35 -0.65 -0.30 -1.35 -1 -1.55 -1.50 -0.15 -0.55 -0.85 -1.20 -1.50 -1.50 -0.65 -0.30 -1.55 -1.10 -1.95 -1.75 -0.45 -0.60 -1.20 -1.15 -1.75 -1.15 -0.55 0 -1.20 -0.45 -1.50 -1 -0.30 -0.55 -1.40 -1.35 -2.45 -1.80 -1.05 -0.40 -2.40 -1.30 -3 -2 -0.60 -0.65 -1.60 -1.20 -2.30 -1.20 -0.70 0 -1.40 -0.35 -1.60 -0.75 -0.40 -1.15 -2.85 -2.25 -4.85 -2.25 -1.15 0 -2.10 -0.35 -2.75 -1.05 -1.10 -1.20 -4 -1.90 -7.95 -1.95 -1.80 0 -2.70 -0.25 -2.90 -0.70 -0.15 -0.40 -0.75 -0.90 -1.35 -1.10 -0.60 -0.25 -45.10 -0.55 -98.85 -0.70 l-97.75 -0.25 -3.25 -1.45 c-1.75 -0.80 -4.10 -1.55 -5.25 -1.70 -1.20 -0.15 -2.45 -0.70 -3.15 -1.45 -0.60 -0.65 -1.80 -1.45 -2.60 -1.75 -0.85 -0.25 -1.50 -0.70 -1.50 -0.95 0 -0.30 -0.90 -0.90 -2 -1.40 -1.10 -0.50 -2.45 -1.50 -3 -2.20 -0.60 -0.75 -1.40 -1.35 -1.75 -1.35 -0.40 0 -1.10 -0.70 -1.55 -1.60 -0.45 -0.85 -1.35 -2.15 -2 -2.85 -0.65 -0.70 -1.20 -1.55 -1.20 -1.90 0 -0.30 -0.55 -1 -1.25 -1.55 -0.70 -0.55 -1.25 -1.30 -1.25 -1.70 0 -0.40 -0.75 -1.40 -1.60 -2.25 -0.90 -0.85 -1.85 -1.80 -2.15 -2.10 -2.05 -2.25 -6.75 -6.30 -8.05 -6.85 -0.85 -0.35 -1.80 -1 -2.15 -1.40 -0.35 -0.40 -1.45 -1 -2.45 -1.35 -1 -0.35 -2.50 -1.10 -3.25 -1.75 -0.80 -0.65 -2.05 -1.20 -2.80 -1.20 -0.80 0 -2.50 -0.60 -3.80 -1.30 -1.50 -0.75 -3.80 -1.45 -5.95 -1.70 -1.95 -0.20 -4.65 -0.95 -6.05 -1.60 l-2.50 -1.15 -23.75 0 c-22.65 0 -24 0.05 -28.75 1.10 -5.60 1.25 -7.90 1.50 -16.25 1.90 -3.15 0.10 -8.20 0.70 -11.25 1.25 -3 0.55 -9.45 1.25 -14.25 1.50 -4.80 0.30 -11.65 1.05 -15.25 1.75 -3.85 0.70 -9.40 1.30 -13.65 1.45 -4.65 0.20 -8.45 0.65 -11 1.30 -2.60 0.65 -7 1.15 -12.90 1.45 -5.35 0.30 -10.90 0.90 -13.80 1.50 -4.70 1 -19.40 2.20 -21.25 1.75 -0.55 -0.15 -1.65 0.45 -3 1.70 -2.05 1.85 -2.15 2.05 -2.15 4.80 0 2.70 0.10 3.05 1.85 4.60 l1.85 1.70 84.85 0 c46.65 0 85.20 0.10 85.60 0.30 0.45 0.15 0.95 0.70 1.10 1.15 0.15 0.50 0.95 1.50 1.80 2.30 2.45 2.15 1.80 4.70 -2.25 9.35 -0.45 0.50 -1.90 0.95 -4.15 1.15 -1.85 0.20 -4.20 0.55 -5.15 0.80 -0.95 0.25 -3.85 0.45 -6.40 0.45 -2.55 0 -8.40 0.20 -13 0.45 -4.60 0.30 -24.30 0.65 -43.85 0.80 -50.80 0.50 -72.85 1.15 -73.95 2.25 -0.30 0.30 -4.85 0.50 -12.65 0.50 -12.65 0 -14.10 0.20 -15.05 2.20 -1.45 3.05 -1.15 4.15 1.60 6.05 1.55 1.05 2.40 1.30 3.85 1.10 1 -0.15 2.80 -0.05 4 0.15 1.20 0.20 14.60 0.55 29.70 0.70 39.45 0.45 75.60 1.25 82 1.85 3.05 0.25 11.25 0.60 18.25 0.70 7 0.15 17.25 0.35 22.75 0.45 5.50 0.15 10.35 0.35 10.80 0.55 1.20 0.45 3.95 4.95 3.95 6.45 0 1.45 -2.90 4.95 -5.05 6.05 -1.10 0.60 -5 0.75 -19.55 0.80 -29.25 0.15 -57.10 1 -77.90 2.45 -4.25 0.30 -21.80 0.60 -39 0.65 l-31.25 0.10 -2.35 1.40 c-2.25 1.30 -2.40 1.50 -2.40 3.55 0 1.70 0.30 2.40 1.50 3.55 l1.45 1.40 18.40 0.20 c10.10 0.10 23 0.50 28.60 0.95 5.65 0.40 11 0.65 11.90 0.45 0.95 -0.15 5.90 0.05 11.05 0.45 6.65 0.55 20.50 0.85 47.85 1.05 21.20 0.15 40.10 0.25 42.05 0.25 5.10 -0.10 10.80 1.90 13.35 4.60 1.55 1.70 1.85 2.35 1.85 4.25 0 1.90 -0.30 2.60 -2 4.50 -1.10 1.25 -2 2.50 -2 2.70 0 0.25 -38.15 0.45 -85.50 0.45 l-85.50 0 -1.55 1.40 c-1.45 1.30 -1.60 1.65 -1.50 4.40 0.05 3.40 0.80 4.35 4.20 5.25 1.15 0.30 2.90 0.75 3.85 1.05 0.95 0.25 5.90 0.70 11 0.90 7.40 0.35 9.90 0.65 12.50 1.50 2.65 0.90 4.75 1.15 11.75 1.35 6.65 0.15 9.70 0.50 14 1.45 4.05 0.95 8 1.40 14.75 1.70 6.35 0.35 10.50 0.80 13.25 1.50 2.75 0.70 7 1.15 13.75 1.50 6.55 0.35 11.25 0.85 14.25 1.55 2.80 0.65 7.65 1.20 12.75 1.45 4.55 0.25 10.05 0.80 12.25 1.25 7.40 1.45 10.95 1.65 28.25 1.55 16.55 -0.10 17.35 -0.15 20 -1.25z"/>
  <path d="M292.50 332.05 c-1.55 -0.20 -4.30 -1 -6.10 -1.70 -1.85 -0.75 -3.75 -1.35 -4.25 -1.35 -0.50 0 -1.90 -0.70 -3.15 -1.50 -1.25 -0.80 -2.65 -1.50 -3.15 -1.50 -0.45 0 -1.80 -0.65 -2.95 -1.50 -1.10 -0.80 -2.30 -1.50 -2.65 -1.50 -0.35 0 -2.05 -1.35 -3.80 -3 -1.75 -1.65 -3.45 -3 -3.80 -3 -0.35 0 -0.65 -0.25 -0.65 -0.50 0 -0.30 -0.75 -1.35 -1.70 -2.40 -3.20 -3.45 -5.30 -6.20 -5.30 -6.90 0 -0.40 -0.55 -1.20 -1.25 -1.75 -0.65 -0.60 -1.35 -1.70 -1.50 -2.45 -0.15 -0.75 -0.85 -2.10 -1.50 -3 -0.65 -0.90 -1.35 -2.60 -1.55 -3.85 -0.15 -1.20 -0.75 -2.75 -1.30 -3.40 -1.40 -1.80 -1.85 -6.25 -1.85 -17.50 -0.05 -10.45 0.50 -15.70 1.60 -16.35 0.40 -0.20 1 -1.60 1.35 -3 0.35 -1.45 1.15 -3.50 1.85 -4.50 0.70 -1 1.45 -2.80 1.70 -3.95 0.30 -1.20 1 -2.50 1.70 -3.05 0.65 -0.50 1.35 -1.35 1.50 -1.90 0.20 -0.55 0.65 -1 1.05 -1 0.40 0 1.10 -0.80 1.50 -1.75 0.40 -0.95 1.05 -1.75 1.50 -1.75 0.45 0 1.05 -0.65 1.35 -1.50 0.30 -0.80 0.85 -1.50 1.20 -1.50 0.35 0 1 -0.55 1.45 -1.25 0.45 -0.70 1.10 -1.25 1.50 -1.25 0.35 0 1.15 -0.65 1.80 -1.50 0.60 -0.80 1.40 -1.50 1.75 -1.50 0.35 0 1.35 -0.65 2.25 -1.45 0.90 -0.80 2.40 -1.60 3.30 -1.80 0.90 -0.15 2.25 -0.85 3 -1.50 0.75 -0.65 2.30 -1.30 3.35 -1.50 1.10 -0.20 2.80 -0.90 3.80 -1.60 1.50 -1 2.80 -1.30 8 -1.75 8.60 -0.75 12.30 -0.75 18.95 0 3.80 0.45 6.65 1.05 8.50 1.85 1.50 0.65 3.70 1.45 4.80 1.75 1.15 0.25 2.20 0.80 2.35 1.20 0.15 0.40 1.40 1.05 2.80 1.55 1.40 0.45 2.55 1.05 2.55 1.30 0 0.30 0.90 0.90 2 1.40 1.10 0.50 2.45 1.50 3 2.20 0.60 0.75 1.40 1.35 1.80 1.35 0.40 0 0.70 0.25 0.70 0.50 0 0.30 1.35 1.85 3 3.50 1.65 1.65 3 3.20 3 3.45 0 0.25 0.55 0.90 1.20 1.40 1.40 1.10 4 4.90 4.55 6.65 0.20 0.70 1 2.40 1.75 3.75 0.75 1.40 1.55 3.20 1.70 4 0.20 0.85 0.90 2.65 1.55 4 2.65 5.60 2.55 29.60 -0.20 33.05 -0.55 0.70 -1.15 2.10 -1.35 3.15 -0.15 1 -0.80 2.60 -1.45 3.55 -0.65 0.95 -1.30 2.30 -1.50 3 -0.20 0.70 -1.05 2 -1.80 2.90 -0.80 0.90 -1.45 1.90 -1.45 2.20 0 0.25 -0.65 1.30 -1.50 2.25 -0.80 0.90 -1.50 2 -1.50 2.40 0 0.40 -0.50 1 -1.10 1.30 -0.60 0.30 -2.35 1.85 -3.95 3.40 -4.45 4.40 -6.45 6.05 -7.40 6.05 -0.50 0 -1.50 0.70 -2.20 1.50 -0.80 0.90 -1.85 1.50 -2.55 1.50 -0.70 0 -1.95 0.60 -2.80 1.35 -1.10 0.90 -2.50 1.45 -4.40 1.70 -1.55 0.20 -4 1 -5.45 1.75 -2.60 1.30 -3.05 1.35 -11.80 1.50 -5 0.05 -10.35 -0.05 -11.85 -0.25z"/>
 </g>
</svg>